<svg xmlns="http://www.w3.org/2000/svg" viewBox="0 5 303 38" role="img" aria-label="SparkCircles wordmark"><title>SparkCircles wordmark</title><path d="M20,13.5 C18,9.5 14.5,8 11.5,8 C6.5,8 3.5,11 3.5,15.5 C3.5,20.5 8,22 12,23.2 C17,24.7 21,26.5 21,32 C21,37 17,40 12,40 C8,40 4.5,38.3 2.5,35 M29,40 V8 H37 A8,8 0 0 1 37,24 H29 M53,40 L64,8 L75,40 M57.6,27 H70.4 M83,40 V8 H91 A8,8 0 0 1 91,24 H83 M91,24 L99,40 M107,8 V40 M123,8 L107,26 M112.5,20 L124,40 M159.26,13.72 A16,16 0 1 0 159.26,34.28 M167,8 V40 M175,40 V8 H183 A8,8 0 0 1 183,24 H175 M183,24 L191,40 M227.26,13.72 A16,16 0 1 0 227.26,34.28 M235,8 V40 H250 M273,8 H258 V40 H273 M258,24 H270 M299,13.5 C297,9.5 293.5,8 290.5,8 C285.5,8 282.5,11 282.5,15.5 C282.5,20.5 287,22 291,23.2 C296,24.7 300,26.5 300,32 C300,37 296,40 291,40 C287,40 283.5,38.3 281.5,35" fill="none" stroke="#1A1A1A" stroke-width="3.6" stroke-linecap="round" stroke-linejoin="round"/></svg>
